<svg width="327" height="64" viewBox="0 0 327 64" fill="none" xmlns="http://www.w3.org/2000/svg">
<path d="M0 0H327V54C327 59.5228 322.523 64 317 64H10C4.47716 64 0 59.5228 0 54V0Z" fill="#48556A"/>
<g clip-path="url(#clip0_0_11)">
<path d="M36.2315 37.195C36.8815 37.195 37.4708 37.0867 37.9995 36.87C38.5282 36.6533 38.9485 36.337 39.2605 35.921C39.5768 35.5007 39.735 34.9893 39.735 34.387C39.735 33.9363 39.6527 33.5637 39.488 33.269C39.3233 32.97 39.1153 32.7317 38.864 32.554C38.6127 32.372 38.3527 32.2312 38.084 32.1315C37.8197 32.0318 37.5857 31.9538 37.382 31.8975L35.601 31.384C35.3713 31.319 35.1352 31.2367 34.8925 31.137C34.6498 31.033 34.4462 30.8943 34.2815 30.721C34.1212 30.5433 34.041 30.3115 34.041 30.0255C34.041 29.7352 34.1298 29.4795 34.3075 29.2585C34.4895 29.0332 34.7343 28.8577 35.042 28.732C35.354 28.6063 35.7007 28.5457 36.082 28.55C36.6757 28.5543 37.1935 28.7233 37.6355 29.057C38.0818 29.3863 38.3527 29.8348 38.448 30.4025L39.6765 30.188C39.5032 29.3343 39.098 28.667 38.461 28.186C37.8283 27.7007 37.0397 27.4558 36.095 27.4515C35.4753 27.4472 34.9163 27.549 34.418 27.757C33.924 27.965 33.534 28.2662 33.248 28.6605C32.962 29.0505 32.819 29.5228 32.819 30.0775C32.819 30.5368 32.9143 30.9182 33.105 31.2215C33.3 31.5248 33.5513 31.7675 33.859 31.9495C34.171 32.1272 34.5003 32.268 34.847 32.372L37.2325 33.0805C37.5662 33.1802 37.8673 33.3318 38.136 33.5355C38.4047 33.7348 38.539 34.0403 38.539 34.452C38.539 34.79 38.4372 35.0825 38.2335 35.3295C38.0342 35.5765 37.7655 35.7672 37.4275 35.9015C37.0895 36.0315 36.7103 36.0965 36.29 36.0965C35.6357 36.0965 35.0702 35.9318 34.5935 35.6025C34.1168 35.2688 33.8027 34.8073 33.651 34.218L32.455 34.4065C32.559 34.9785 32.7822 35.4747 33.1245 35.895C33.4712 36.311 33.9088 36.6317 34.4375 36.857C34.9705 37.0823 35.5685 37.195 36.2315 37.195ZM46.0985 37H47.2555V32.866H52.1825V37H53.3395V27.64H52.1825V31.7675H47.2555V27.64H46.0985V37ZM59.5129 37H60.7154L61.4499 34.8095H65.4474L66.1884 37H67.3909L64.2579 27.64H62.6459L59.5129 37ZM61.8139 33.724L63.4389 28.8555L65.0834 33.724H61.8139ZM73.5545 37H74.7115V33.542H77.448L79.125 37H80.451L78.644 33.2885C79.1727 33.0675 79.5735 32.7187 79.8465 32.242C80.1195 31.761 80.256 31.2107 80.256 30.591C80.256 29.8457 80.0589 29.2065 79.6645 28.6735C79.2745 28.1362 78.7004 27.809 77.942 27.692C77.8207 27.6703 77.6972 27.6573 77.5715 27.653C77.4502 27.6443 77.344 27.64 77.253 27.64H73.5545V37ZM74.7115 32.4435V28.7385H77.214C77.2964 28.7385 77.3895 28.7428 77.4935 28.7515C77.6019 28.7602 77.7037 28.7753 77.799 28.797C78.2497 28.8967 78.5747 29.1242 78.774 29.4795C78.9734 29.8305 79.073 30.201 79.073 30.591C79.073 30.981 78.9734 31.3537 78.774 31.709C78.5747 32.06 78.2497 32.2853 77.799 32.385C77.7037 32.4067 77.6019 32.4218 77.4935 32.4305C77.3895 32.4392 77.2964 32.4435 77.214 32.4435H74.7115ZM86.8827 37H92.7977V35.9015H88.0397V32.7685H92.0177V31.67H88.0397V28.7385H92.7977V27.64H86.8827V37Z" fill="#9DAEC2"/>
<path d="M133.896 22H116.104C115.494 22 115 22.4942 115 23.1042V40.8967C115 41.5058 115.494 42 116.104 42H125.683V34.255H123.077V31.2367H125.683V29.0108C125.683 26.4275 127.261 25.0208 129.566 25.0208C130.67 25.0208 131.618 25.1033 131.895 25.14V27.84L130.297 27.8408C129.043 27.8408 128.801 28.4367 128.801 29.31V31.2375H131.79L131.401 34.2558H128.801V42H133.897C134.506 42 135 41.5058 135 40.8958V23.1042C135 22.4942 134.506 22 133.896 22Z" fill="white"/>
<path d="M197 22C191.477 22 187 26.4767 187 32C187 36.2367 189.636 39.855 193.356 41.3117C193.268 40.5208 193.189 39.3075 193.391 38.4442C193.573 37.6633 194.563 33.4733 194.563 33.4733C194.563 33.4733 194.264 32.8742 194.264 31.9883C194.264 30.5983 195.07 29.56 196.073 29.56C196.926 29.56 197.338 30.2008 197.338 30.9683C197.338 31.8258 196.793 33.1083 196.51 34.2975C196.274 35.2925 197.009 36.105 197.991 36.105C199.768 36.105 201.134 34.2308 201.134 31.5258C201.134 29.1317 199.414 27.4575 196.958 27.4575C194.113 27.4575 192.443 29.5917 192.443 31.7967C192.443 32.6558 192.773 33.5783 193.187 34.0783C193.268 34.1775 193.28 34.265 193.256 34.3658L192.978 35.4992C192.934 35.6825 192.833 35.7217 192.643 35.6333C191.394 35.0517 190.613 33.2258 190.613 31.7592C190.613 28.605 192.905 25.7075 197.221 25.7075C200.69 25.7075 203.386 28.18 203.386 31.4833C203.386 34.93 201.213 37.7033 198.197 37.7033C197.183 37.7033 196.231 37.1775 195.905 36.555L195.282 38.9325C195.056 39.8017 194.447 40.8908 194.038 41.5542C194.975 41.8433 195.969 42 197 42C202.523 42 207 37.5225 207 32C207 26.4767 202.523 22 197 22Z" fill="white"/>
<path d="M171 26.1722C170.264 26.4988 169.473 26.7188 168.643 26.818C169.491 26.3105 170.142 25.5063 170.448 24.548C169.655 25.018 168.777 25.3597 167.842 25.5438C167.094 24.7463 166.027 24.248 164.847 24.248C162.198 24.248 160.251 26.7197 160.849 29.2855C157.44 29.1147 154.417 27.4813 152.393 24.9988C151.317 26.843 151.835 29.2555 153.662 30.4772C152.99 30.4555 152.357 30.2713 151.804 29.9638C151.759 31.8647 153.122 33.643 155.095 34.0388C154.517 34.1955 153.885 34.2322 153.242 34.1088C153.763 35.7388 155.278 36.9247 157.075 36.958C155.35 38.3105 153.177 38.9147 151 38.658C152.816 39.8222 154.973 40.5013 157.29 40.5013C164.908 40.5013 169.212 34.0672 168.952 28.2963C169.754 27.7172 170.45 26.9947 171 26.1722Z" fill="white"/>
</g>
<defs>
<clipPath id="clip0_0_11">
<rect width="175" height="20" fill="white" transform="translate(32 22)"/>
</clipPath>
</defs>
</svg>
