<svg width="268" height="87" viewBox="0 0 268 87" fill="none" xmlns="http://www.w3.org/2000/svg">
<g filter="url(#filter0_d_0_65)">
<path fill-rule="evenodd" clip-rule="evenodd" d="M20 0C14.4772 0 10 4.47715 10 10V45C10 50.5228 14.4772 55 20 55H122L134 67L146 55H248C253.523 55 258 50.5228 258 45V10C258 4.47715 253.523 0 248 0H20Z" fill="#48556A"/>
</g>
<g clip-path="url(#clip0_0_65)">
<path d="M51.2315 33.195C51.8815 33.195 52.4708 33.0867 52.9995 32.87C53.5282 32.6533 53.9485 32.337 54.2605 31.921C54.5768 31.5007 54.735 30.9893 54.735 30.387C54.735 29.9363 54.6527 29.5637 54.488 29.269C54.3233 28.97 54.1153 28.7317 53.864 28.554C53.6127 28.372 53.3527 28.2312 53.084 28.1315C52.8197 28.0318 52.5857 27.9538 52.382 27.8975L50.601 27.384C50.3713 27.319 50.1352 27.2367 49.8925 27.137C49.6498 27.033 49.4462 26.8943 49.2815 26.721C49.1212 26.5433 49.041 26.3115 49.041 26.0255C49.041 25.7352 49.1298 25.4795 49.3075 25.2585C49.4895 25.0332 49.7343 24.8577 50.042 24.732C50.354 24.6063 50.7007 24.5457 51.082 24.55C51.6757 24.5543 52.1935 24.7233 52.6355 25.057C53.0818 25.3863 53.3527 25.8348 53.448 26.4025L54.6765 26.188C54.5032 25.3343 54.098 24.667 53.461 24.186C52.8283 23.7007 52.0397 23.4558 51.095 23.4515C50.4753 23.4472 49.9163 23.549 49.418 23.757C48.924 23.965 48.534 24.2662 48.248 24.6605C47.962 25.0505 47.819 25.5228 47.819 26.0775C47.819 26.5368 47.9143 26.9182 48.105 27.2215C48.3 27.5248 48.5513 27.7675 48.859 27.9495C49.171 28.1272 49.5003 28.268 49.847 28.372L52.2325 29.0805C52.5662 29.1802 52.8673 29.3318 53.136 29.5355C53.4047 29.7348 53.539 30.0403 53.539 30.452C53.539 30.79 53.4372 31.0825 53.2335 31.3295C53.0342 31.5765 52.7655 31.7672 52.4275 31.9015C52.0895 32.0315 51.7103 32.0965 51.29 32.0965C50.6357 32.0965 50.0702 31.9318 49.5935 31.6025C49.1168 31.2688 48.8027 30.8073 48.651 30.218L47.455 30.4065C47.559 30.9785 47.7822 31.4747 48.1245 31.895C48.4712 32.311 48.9088 32.6317 49.4375 32.857C49.9705 33.0823 50.5685 33.195 51.2315 33.195ZM61.0985 33H62.2555V28.866H67.1825V33H68.3395V23.64H67.1825V27.7675H62.2555V23.64H61.0985V33ZM74.5129 33H75.7154L76.4499 30.8095H80.4474L81.1884 33H82.3909L79.2579 23.64H77.6459L74.5129 33ZM76.8139 29.724L78.4389 24.8555L80.0834 29.724H76.8139ZM88.5545 33H89.7115V29.542H92.448L94.125 33H95.451L93.644 29.2885C94.1727 29.0675 94.5735 28.7187 94.8465 28.242C95.1195 27.761 95.256 27.2107 95.256 26.591C95.256 25.8457 95.0589 25.2065 94.6645 24.6735C94.2745 24.1362 93.7004 23.809 92.942 23.692C92.8207 23.6703 92.6972 23.6573 92.5715 23.653C92.4502 23.6443 92.344 23.64 92.253 23.64H88.5545V33ZM89.7115 28.4435V24.7385H92.214C92.2964 24.7385 92.3895 24.7428 92.4935 24.7515C92.6019 24.7602 92.7037 24.7753 92.799 24.797C93.2497 24.8967 93.5747 25.1242 93.774 25.4795C93.9734 25.8305 94.073 26.201 94.073 26.591C94.073 26.981 93.9734 27.3537 93.774 27.709C93.5747 28.06 93.2497 28.2853 92.799 28.385C92.7037 28.4067 92.6019 28.4218 92.4935 28.4305C92.3895 28.4392 92.2964 28.4435 92.214 28.4435H89.7115ZM101.883 33H107.798V31.9015H103.04V28.7685H107.018V27.67H103.04V24.7385H107.798V23.64H101.883V33Z" fill="#9DAEC2"/>
<path d="M148.896 18H131.104C130.494 18 130 18.4942 130 19.1042V36.8967C130 37.5058 130.494 38 131.104 38H140.683V30.255H138.077V27.2367H140.683V25.0108C140.683 22.4275 142.261 21.0208 144.566 21.0208C145.67 21.0208 146.618 21.1033 146.895 21.14V23.84L145.297 23.8408C144.043 23.8408 143.801 24.4367 143.801 25.31V27.2375H146.79L146.401 30.2558H143.801V38H148.897C149.506 38 150 37.5058 150 36.8958V19.1042C150 18.4942 149.506 18 148.896 18Z" fill="white"/>
<path d="M212 18C206.477 18 202 22.4767 202 28C202 32.2367 204.636 35.855 208.356 37.3117C208.268 36.5208 208.189 35.3075 208.391 34.4442C208.573 33.6633 209.563 29.4733 209.563 29.4733C209.563 29.4733 209.264 28.8742 209.264 27.9883C209.264 26.5983 210.07 25.56 211.073 25.56C211.926 25.56 212.338 26.2008 212.338 26.9683C212.338 27.8258 211.793 29.1083 211.51 30.2975C211.274 31.2925 212.009 32.105 212.991 32.105C214.768 32.105 216.134 30.2308 216.134 27.5258C216.134 25.1317 214.414 23.4575 211.958 23.4575C209.113 23.4575 207.443 25.5917 207.443 27.7967C207.443 28.6558 207.773 29.5783 208.187 30.0783C208.268 30.1775 208.28 30.265 208.256 30.3658L207.978 31.4992C207.934 31.6825 207.833 31.7217 207.643 31.6333C206.394 31.0517 205.613 29.2258 205.613 27.7592C205.613 24.605 207.905 21.7075 212.221 21.7075C215.69 21.7075 218.386 24.18 218.386 27.4833C218.386 30.93 216.213 33.7033 213.197 33.7033C212.183 33.7033 211.231 33.1775 210.905 32.555L210.282 34.9325C210.056 35.8017 209.447 36.8908 209.038 37.5542C209.975 37.8433 210.969 38 212 38C217.523 38 222 33.5225 222 28C222 22.4767 217.523 18 212 18Z" fill="white"/>
<path d="M186 22.1722C185.264 22.4989 184.473 22.7189 183.643 22.818C184.491 22.3105 185.142 21.5064 185.448 20.548C184.655 21.018 183.777 21.3597 182.842 21.5439C182.094 20.7464 181.027 20.248 179.847 20.248C177.198 20.248 175.251 22.7197 175.849 25.2855C172.44 25.1147 169.417 23.4814 167.393 20.9989C166.317 22.843 166.835 25.2555 168.662 26.4772C167.99 26.4555 167.357 26.2714 166.804 25.9639C166.759 27.8647 168.122 29.643 170.095 30.0389C169.517 30.1955 168.885 30.2322 168.242 30.1089C168.763 31.7389 170.278 32.9247 172.075 32.958C170.35 34.3105 168.177 34.9147 166 34.658C167.816 35.8222 169.973 36.5014 172.29 36.5014C179.908 36.5014 184.212 30.0672 183.952 24.2964C184.754 23.7172 185.45 22.9947 186 22.1722Z" fill="white"/>
</g>
<defs>
<filter id="filter0_d_0_65" x="0" y="0" width="268" height="87" filterUnits="userSpaceOnUse" color-interpolation-filters="sRGB">
<feFlood flood-opacity="0" result="BackgroundImageFix"/>
<feColorMatrix in="SourceAlpha" type="matrix" values="0 0 0 0 0 0 0 0 0 0 0 0 0 0 0 0 0 0 127 0" result="hardAlpha"/>
<feOffset dy="10"/>
<feGaussianBlur stdDeviation="5"/>
<feColorMatrix type="matrix" values="0 0 0 0 0.788235 0 0 0 0 0.835294 0 0 0 0 0.882353 0 0 0 0.503415 0"/>
<feBlend mode="normal" in2="BackgroundImageFix" result="effect1_dropShadow_0_65"/>
<feBlend mode="normal" in="SourceGraphic" in2="effect1_dropShadow_0_65" result="shape"/>
</filter>
<clipPath id="clip0_0_65">
<rect width="175" height="20" fill="white" transform="translate(47 18)"/>
</clipPath>
</defs>
</svg>
